<svg id="Layer_1" data-name="Layer 1" xmlns="http://www.w3.org/2000/svg" viewBox="0 0 1860.8 175.06"><defs><style>.cls-1{fill:#fff;}.cls-1,.cls-2,.cls-3{stroke:#ff7bac;stroke-width:1.5px;}.cls-1,.cls-2,.cls-3,.cls-5{stroke-miterlimit:10;}.cls-2,.cls-5{fill:none;}.cls-3{fill:#ff7bac;}.cls-4{fill:#f17aaa;}.cls-5{stroke:#fff;stroke-width:0.8px;}.cls-6{fill:#90566a;}.cls-7,.cls-9{fill:#f27aaa;}.cls-8{fill:#facadd;}.cls-9{font-size:42.31px;font-family:JosefinSans-Regular, Josefin Sans;}.cls-10{letter-spacing:-0.01em;}</style></defs><title>Background COGS WP</title><circle class="cls-1" cx="1697.47" cy="124.01" r="35.45"/><circle class="cls-1" cx="1554.84" cy="124.01" r="35.45"/><line class="cls-2" x1="1590.5" y1="123.8" x2="1662.02" y2="124.22"/><circle class="cls-3" cx="1590.1" cy="124.01" r="2.77"/><circle class="cls-3" cx="1534.23" cy="94.88" r="2.77"/><path class="cls-2" d="M1727.57,827.16c0-34.54,36-62.5,80.54-62.5" transform="translate(-30.1 -737.84)"/><circle class="cls-3" cx="1697.82" cy="88.92" r="2.77"/><circle class="cls-3" cx="1778.2" cy="26.84" r="2.77"/><line class="cls-2" x1="1692.4" y1="174.66" x2="1697.47" y2="160.22"/><circle class="cls-3" cx="1697.82" cy="159.98" r="2.77"/><path class="cls-2" d="M1870.61,738.59h-54.14a35.45,35.45,0,1,0,54.11-.07" transform="translate(-30.1 -737.84)"/><path class="cls-2" d="M1526.22,739.07h-54.14a35.45,35.45,0,1,0,54.11-.07" transform="translate(-30.1 -737.84)"/><line class="cls-2" x1="1494.86" y1="48.63" x2="1534.29" y2="94.78"/><line class="cls-2" x1="1490.66" y1="51.99" x2="1530.1" y2="98.13"/><circle class="cls-3" cx="1530.45" cy="98.66" r="2.77"/><circle class="cls-3" cx="1494.8" cy="48.74" r="2.77"/><circle class="cls-3" cx="1491.02" cy="52.51" r="2.77"/><circle class="cls-1" cx="1410.96" cy="124.01" r="35.45"/><line class="cls-2" x1="1446.62" y1="122.25" x2="1518.14" y2="122.67"/><circle class="cls-3" cx="1446.22" cy="122.65" r="2.77"/><circle class="cls-3" cx="1519.21" cy="122.23" r="2.77"/><circle class="cls-3" cx="1661.83" cy="124.33" r="2.77"/><path class="cls-4" d="M1602.07,847.3H1567.8a3.3,3.3,0,0,0-3.3,3.29v21.1a3.29,3.29,0,0,0,3.3,3.29h23.45l7.53,7.53V875h3.29a3.29,3.29,0,0,0,3.3-3.29v-21.1a3.3,3.3,0,0,0-3.3-3.29m2,24.39a2,2,0,0,1-2,2h-4.61v5.66l-5.66-5.66h-24a2,2,0,0,1-2-2v-21.1a2,2,0,0,1,2-2h34.27a2,2,0,0,1,2,2Z" transform="translate(-30.1 -737.84)"/><rect class="cls-4" x="1544.95" y="122.64" width="19.78" height="1.32"/><rect class="cls-4" x="1544.95" y="116.05" width="19.78" height="1.32"/><rect class="cls-4" x="1544.95" y="129.23" width="13.18" height="1.32"/><rect class="cls-2" x="1449.14" y="13.28" width="40.48" height="19.14"/><rect class="cls-2" x="1473.9" y="754.99" width="40.48" height="19.14" transform="translate(2228.6 -1467.43) rotate(90)"/><rect class="cls-2" x="1460.54" y="23.69" width="25.76" height="12.18"/><rect class="cls-2" x="1487.25" y="763.99" width="25.76" height="12.18" transform="translate(2240.11 -1467.89) rotate(90)"/><rect class="cls-2" x="1456.68" y="9.56" width="25.39" height="12"/><path class="cls-4" d="M1744.89,844h-32.26a3.1,3.1,0,0,0-3.1,3.1v32.26a3.1,3.1,0,0,0,3.1,3.1h32.26a3.1,3.1,0,0,0,3.1-3.1V847.1a3.1,3.1,0,0,0-3.1-3.1m1.86,35.36a1.86,1.86,0,0,1-1.86,1.86h-32.26a1.86,1.86,0,0,1-1.86-1.86v-9.67l11.79-11.78,6.2,6.2,11.79-11.79v10.91h1.24v-13h-13v1.25h10.91l-10.91,10.91-6.2-6.21-11.79,11.79V847.1a1.87,1.87,0,0,1,1.86-1.86h32.26a1.86,1.86,0,0,1,1.86,1.86Z" transform="translate(-30.1 -737.84)"/><rect class="cls-4" x="1801.9" y="38.06" width="2.75" height="2.75"/><rect class="cls-4" x="1801.9" y="31.2" width="2.75" height="2.75"/><rect class="cls-4" x="1801.9" y="24.33" width="2.75" height="2.75"/><rect class="cls-4" x="1808.76" y="38.06" width="2.75" height="2.75"/><rect class="cls-4" x="1808.76" y="31.2" width="2.75" height="2.75"/><rect class="cls-4" x="1808.76" y="24.33" width="2.75" height="2.75"/><rect class="cls-4" x="1815.63" y="38.06" width="2.75" height="2.75"/><rect class="cls-4" x="1815.63" y="31.2" width="2.75" height="2.75"/><rect class="cls-4" x="1815.63" y="24.33" width="2.75" height="2.75"/><rect class="cls-4" x="1822.5" y="38.06" width="2.75" height="2.75"/><rect class="cls-4" x="1822.5" y="31.2" width="2.75" height="2.75"/><rect class="cls-4" x="1822.5" y="24.33" width="2.75" height="2.75"/><path class="cls-4" d="M1825.82,784.78h35.71V742.21h-35.71Zm34.33-1.38h-33V743.58h33Z" transform="translate(-30.1 -737.84)"/><path class="cls-4" d="M1854.66,749.07h-22v8.24h22Zm-1.37,6.87h-19.23v-5.49h19.23Z" transform="translate(-30.1 -737.84)"/><path class="cls-4" d="M1454.56,846.56h-27.39a2.64,2.64,0,0,0-2.64,2.64v27.39a2.64,2.64,0,0,0,2.64,2.64h27.39a2.64,2.64,0,0,0,2.64-2.64V849.2a2.64,2.64,0,0,0-2.64-2.64m1.59,30a1.59,1.59,0,0,1-1.59,1.59h-27.39a1.59,1.59,0,0,1-1.58-1.59V849.2a1.58,1.58,0,0,1,1.58-1.58h27.39a1.59,1.59,0,0,1,1.59,1.58Z" transform="translate(-30.1 -737.84)"/><rect class="cls-4" x="1420.78" y="114.52" width="1.05" height="21.07"/><rect class="cls-4" x="1415.51" y="119.79" width="1.05" height="15.81"/><rect class="cls-4" x="1410.24" y="125.06" width="1.05" height="10.54"/><rect class="cls-4" x="1404.97" y="125.06" width="1.05" height="10.54"/><rect class="cls-4" x="1399.7" y="130.32" width="1.05" height="5.27"/><line class="cls-2" x1="1549.4" y1="174.66" x2="1554.42" y2="159.38"/><circle class="cls-3" cx="1554.78" cy="159.15" r="2.77"/><rect class="cls-5" x="0.4" y="0.66" width="1860" height="174"/><path class="cls-6" d="M109,806.61l37.38,16.74c1.12.51,1.55,1.34.94,1.86L110.05,857a3.6,3.6,0,0,1-4.51,0L68.28,825.17c-.61-.52-.18-1.36,1-1.86l37.35-16.7A3.39,3.39,0,0,1,109,806.61Z" transform="translate(-30.1 -737.84)"/><path class="cls-7" d="M108.88,800.26l32.36,13c.94.38,1.26,1,.71,1.39L109.64,837a3.5,3.5,0,0,1-3.69,0L73.66,814.57c-.56-.39-.23-1,.71-1.39l32.34-12.92A3.36,3.36,0,0,1,108.88,800.26Z" transform="translate(-30.1 -737.84)"/><path class="cls-8" d="M108.73,793.1,134,801.84c.74.25.95.68.46.94l-25.22,13.38a3.41,3.41,0,0,1-2.83,0l-25.21-13.4c-.5-.26-.28-.69.46-1l25.23-8.71A3.31,3.31,0,0,1,108.73,793.1Z" transform="translate(-30.1 -737.84)"/><text class="cls-9" transform="translate(135.07 103.24)">QUICK ASSO<tspan class="cls-10" x="268.14" y="0">R</tspan><tspan x="295.64" y="0">TMENTS</tspan></text></svg>