<svg id="Layer_1" data-name="Layer 1" xmlns="http://www.w3.org/2000/svg" viewBox="0 0 118.15 119.27"><defs><style>.cls-1,.cls-3{fill:#fff;}.cls-2{fill:#486a81;}.cls-3,.cls-4{stroke:#fff;stroke-miterlimit:10;}.cls-4{fill:none;stroke-width:2px;}</style></defs><title>Favicon Wordpress</title><rect class="cls-1" y="43.27" width="118.15" height="76" rx="9.86"/><rect class="cls-2" x="23.12" y="69.87" width="10.27" height="17.5" rx="3.5"/><rect class="cls-2" x="83.48" y="69.87" width="10.27" height="17.5" rx="3.5"/><path class="cls-2" d="M-83.27,226.13l-7.14-7a1.17,1.17,0,0,1,1.24-1.92L-81,220a4.37,4.37,0,0,0,2.9,0l8.38-2.94a1.12,1.12,0,0,1,1.18,1.84l-7.34,7.23A5.27,5.27,0,0,1-83.27,226.13Z" transform="translate(138.66 -116.82)"/><line class="cls-3" x1="59.06" y1="15.22" x2="59.09" y2="39.84"/><ellipse class="cls-3" cx="59.08" cy="14.87" rx="1.57" ry="1.54"/><path class="cls-1" d="M-74.56,156.9l3.62,3.57h-17.3l3.62-3.57A7.18,7.18,0,0,1-74.56,156.9Z" transform="translate(138.66 -116.82)"/><path class="cls-1" d="M-74.56,156.9l3.62,3.57h-17.3l3.62-3.57A7.18,7.18,0,0,1-74.56,156.9Z" transform="translate(138.66 -116.82)"/><ellipse class="cls-4" cx="59.08" cy="14.93" rx="14.13" ry="13.93"/><ellipse class="cls-4" cx="59.08" cy="14.93" rx="7.06" ry="6.97"/></svg>