<svg id="Layer_1" data-name="Layer 1" xmlns="http://www.w3.org/2000/svg" viewBox="0 0 162.1 155"><defs><style>.cls-1{fill:#ff7bac;}.cls-2,.cls-4{fill:#fff;}.cls-3{fill:#486a81;}.cls-4,.cls-5{stroke:#fff;stroke-miterlimit:10;}.cls-5{fill:none;stroke-width:2px;}</style></defs><title>QA Favicon Wordpress</title><rect class="cls-1" width="162.1" height="155" rx="6.09"/><rect class="cls-2" x="21.51" y="71.09" width="118.15" height="76" rx="9.86"/><rect class="cls-3" x="44.63" y="97.69" width="10.27" height="17.5" rx="3.5"/><rect class="cls-3" x="104.99" y="97.69" width="10.27" height="17.5" rx="3.5"/><path class="cls-3" d="M312.73,289.13l-7.14-7.05a1.17,1.17,0,0,1,1.24-1.92L315,283a4.37,4.37,0,0,0,2.9,0l8.38-2.94a1.12,1.12,0,0,1,1.18,1.84l-7.34,7.23A5.27,5.27,0,0,1,312.73,289.13Z" transform="translate(-235.83 -152)"/><line class="cls-4" x1="80.57" y1="43.05" x2="80.6" y2="67.67"/><ellipse class="cls-4" cx="80.59" cy="42.69" rx="1.57" ry="1.54"/><path class="cls-2" d="M321.44,219.9l3.62,3.57h-17.3l3.62-3.57A7.18,7.18,0,0,1,321.44,219.9Z" transform="translate(-235.83 -152)"/><path class="cls-2" d="M321.44,219.9l3.62,3.57h-17.3l3.62-3.57A7.18,7.18,0,0,1,321.44,219.9Z" transform="translate(-235.83 -152)"/><ellipse class="cls-5" cx="80.59" cy="42.76" rx="14.13" ry="13.93"/><ellipse class="cls-5" cx="80.59" cy="42.76" rx="7.06" ry="6.97"/><rect class="cls-1" x="3.42" y="110" width="150.48" height="38"/></svg>