<svg id="Layer_1" data-name="Layer 1" xmlns="http://www.w3.org/2000/svg" viewBox="0 0 125 97"><defs><style>.cls-1{fill:#fff;}.cls-2{fill:#90566a;}.cls-3{fill:#f27aaa;}.cls-4{fill:#facadd;}</style></defs><title>Favicon 2018 (White BG)</title><rect class="cls-1" width="125" height="97"/><path class="cls-2" d="M116.2,91.43l46.36,20.77c1.39.62,1.93,1.66,1.17,2.3l-46.24,39.43a4.48,4.48,0,0,1-5.6,0L65.67,114.45c-.75-.65-.21-1.68,1.18-2.3l46.33-20.72A4.14,4.14,0,0,1,116.2,91.43Z" transform="translate(-52.2 -66.21)"/><path class="cls-3" d="M116,83.55l40.14,16.06c1.17.47,1.57,1.25.88,1.73L117,129.18a4.34,4.34,0,0,1-4.58,0L72.35,101.3c-.69-.48-.29-1.26.88-1.72l40.11-16A4.27,4.27,0,0,1,116,83.55Z" transform="translate(-52.2 -66.21)"/><path class="cls-4" d="M115.85,74.67l31.31,10.84c.92.31,1.18.84.56,1.17l-31.28,16.59a4.19,4.19,0,0,1-3.5,0L81.66,86.65c-.61-.32-.35-.85.57-1.17l31.3-10.81A4.16,4.16,0,0,1,115.85,74.67Z" transform="translate(-52.2 -66.21)"/></svg>