<svg xmlns="http://www.w3.org/2000/svg" width="27.137" height="21.106" viewBox="0 0 27.137 21.106"><path d="M24.875,32H2.261A2.262,2.262,0,0,0,0,34.261V50.845a2.262,2.262,0,0,0,2.261,2.261H24.875a2.262,2.262,0,0,0,2.261-2.261V34.261A2.262,2.262,0,0,0,24.875,32Zm0,18.845H2.261V34.261H24.875ZM9.8,42.553a3.015,3.015,0,1,0-3.015-3.015A3.018,3.018,0,0,0,9.8,42.553Zm-4.221,6.03h8.443a.988.988,0,0,0,1.055-.9v-.9a2.967,2.967,0,0,0-3.166-2.714,11.374,11.374,0,0,1-2.111.377,11.209,11.209,0,0,1-2.111-.377,2.967,2.967,0,0,0-3.166,2.714v.9A.988.988,0,0,0,5.578,48.584ZM16.96,45.568h5.277a.378.378,0,0,0,.377-.377v-.754a.378.378,0,0,0-.377-.377H16.96a.378.378,0,0,0-.377.377v.754A.378.378,0,0,0,16.96,45.568Zm0-3.015h5.277a.378.378,0,0,0,.377-.377v-.754a.378.378,0,0,0-.377-.377H16.96a.378.378,0,0,0-.377.377v.754A.378.378,0,0,0,16.96,42.553Zm0-3.015h5.277a.378.378,0,0,0,.377-.377v-.754a.378.378,0,0,0-.377-.377H16.96a.378.378,0,0,0-.377.377v.754A.378.378,0,0,0,16.96,39.538Z" transform="translate(0 -32)" fill="rgba(0,0,0,0.6)"/></svg>