<svg xmlns="http://www.w3.org/2000/svg" width="24.5" height="28" viewBox="0 0 24.5 28"><path d="M8.094,15.75H5.906a.658.658,0,0,1-.656-.656V12.906a.658.658,0,0,1,.656-.656H8.094a.658.658,0,0,1,.656.656v2.188A.658.658,0,0,1,8.094,15.75ZM14,15.094V12.906a.658.658,0,0,0-.656-.656H11.156a.658.658,0,0,0-.656.656v2.188a.658.658,0,0,0,.656.656h2.188A.658.658,0,0,0,14,15.094Zm5.25,0V12.906a.658.658,0,0,0-.656-.656H16.406a.658.658,0,0,0-.656.656v2.188a.658.658,0,0,0,.656.656h2.188A.658.658,0,0,0,19.25,15.094ZM14,20.344V18.156a.658.658,0,0,0-.656-.656H11.156a.658.658,0,0,0-.656.656v2.188a.658.658,0,0,0,.656.656h2.188A.658.658,0,0,0,14,20.344Zm-5.25,0V18.156a.658.658,0,0,0-.656-.656H5.906a.658.658,0,0,0-.656.656v2.188A.658.658,0,0,0,5.906,21H8.094A.658.658,0,0,0,8.75,20.344Zm10.5,0V18.156a.658.658,0,0,0-.656-.656H16.406a.658.658,0,0,0-.656.656v2.188a.658.658,0,0,0,.656.656h2.188A.658.658,0,0,0,19.25,20.344ZM24.5,6.125v19.25A2.626,2.626,0,0,1,21.875,28H2.625A2.626,2.626,0,0,1,0,25.375V6.125A2.626,2.626,0,0,1,2.625,3.5H5.25V.656A.658.658,0,0,1,5.906,0H8.094A.658.658,0,0,1,8.75.656V3.5h7V.656A.658.658,0,0,1,16.406,0h2.188a.658.658,0,0,1,.656.656V3.5h2.625A2.626,2.626,0,0,1,24.5,6.125ZM21.875,25.047V8.75H2.625v16.3a.329.329,0,0,0,.328.328H21.547A.329.329,0,0,0,21.875,25.047Z" fill="rgba(0,0,0,0.6)"/></svg>