<svg xmlns="http://www.w3.org/2000/svg" width="44" height="44" viewBox="0 0 44 44"><g transform="translate(-415 -468)"><rect width="44" height="44" rx="5" transform="translate(415 468)" fill="#36163f"/><g transform="translate(29.876 62.848)"><path d="M27.61,0H0V15.3l21.79.242.013,5.153L0,20.7v8.655H1.822L1.793,22.6l21.807,0-.017-7.038,2.2.025.029,11.862h-22l.018,1.906H27.612L27.574,13.7l-3.995-.044-.016-6.709L4.027,6.73,4.022,8.636l17.752.2.012,4.8L1.793,13.414V1.911H25.817V9.116l1.793.02Z" transform="translate(393.318 411.798)" fill="#fff"/></g></g></svg>